<?xml version="1.0" encoding="UTF-8" standalone="no"?>
<!DOCTYPE svg PUBLIC "-//W3C//DTD SVG 1.1//EN"
 "http://www.w3.org/Graphics/SVG/1.1/DTD/svg11.dtd">
<!-- Generated by graphviz version 2.44.1 (20200629.0846)
 -->
<!-- Pages: 1 -->
<svg width="479pt" height="260pt"
 viewBox="0.00 0.00 479.00 260.00" xmlns="http://www.w3.org/2000/svg" xmlns:xlink="http://www.w3.org/1999/xlink">
<g id="graph0" class="graph" transform="scale(1 1) rotate(0) translate(4 256)">
<!-- my&#45;library -->
<g id="node1" class="node">
<title>my&#45;library</title>
<polygon fill="white" stroke="#1e1e1e" stroke-width="5" points="83,-90 80,-94 59,-94 56,-90 0,-90 0,-54 83,-54 83,-90"/>
<text text-anchor="middle" x="41.5" y="-68.3" font-family="Graphik" font-size="14.00">my&#45;library</text>
</g>
<!-- code -->
<g id="node2" class="node">
<title>code</title>
<polygon fill="white" stroke="#1e1e1e" stroke-width="5" points="173,-117 170,-121 149,-121 146,-117 119,-117 119,-81 173,-81 173,-117"/>
<text text-anchor="middle" x="146" y="-95.3" font-family="Graphik" font-size="14.00">code</text>
</g>
<!-- my&#45;library&#45;&#45;code -->
<g id="edge8" class="edge">
<title>my&#45;library&#45;&#45;code</title>
<path fill="none" stroke="#1e1e1e" stroke-width="3" d="M83.1,-85.5C95.17,-85.5 108.03,-85.5 118.95,-85.5"/>
</g>
<!-- docs -->
<g id="node10" class="node">
<title>docs</title>
<polygon fill="white" stroke="#1e1e1e" stroke-width="5" points="173,-63 170,-67 149,-67 146,-63 119,-63 119,-27 173,-27 173,-63"/>
<text text-anchor="middle" x="146" y="-41.3" font-family="Graphik" font-size="14.00">docs</text>
</g>
<!-- my&#45;library&#45;&#45;docs -->
<g id="edge10" class="edge">
<title>my&#45;library&#45;&#45;docs</title>
<path fill="none" stroke="#1e1e1e" stroke-width="3" d="M83.1,-58.5C95.17,-58.5 108.03,-58.5 118.95,-58.5"/>
</g>
<!-- tutorials -->
<g id="node3" class="node">
<title>tutorials</title>
<polygon fill="white" stroke="#1e1e1e" stroke-width="5" points="294,-198 291,-202 270,-202 267,-198 223,-198 223,-162 294,-162 294,-198"/>
<text text-anchor="middle" x="258.5" y="-176.3" font-family="Graphik" font-size="14.00">tutorials</text>
</g>
<!-- code&#45;&#45;tutorials -->
<g id="edge3" class="edge">
<title>code&#45;&#45;tutorials</title>
<path fill="none" stroke="#1e1e1e" stroke-width="3" d="M173.3,-105C197.16,-105 228,-105 228,-105 228,-105 228,-139.65 228,-161.84"/>
</g>
<!-- src -->
<g id="node6" class="node">
<title>src</title>
<polygon fill="white" stroke="#1e1e1e" stroke-width="5" points="285.5,-117 282.5,-121 261.5,-121 258.5,-117 231.5,-117 231.5,-81 285.5,-81 285.5,-117"/>
<text text-anchor="middle" x="258.5" y="-95.3" font-family="Graphik" font-size="14.00">src</text>
</g>
<!-- code&#45;&#45;src -->
<g id="edge7" class="edge">
<title>code&#45;&#45;src</title>
<path fill="none" stroke="#1e1e1e" stroke-width="3" d="M173.23,-93C190.79,-93 213.54,-93 231.13,-93"/>
</g>
<!-- /Users/kamilazdybal/Desktop/my&#45;library/code/tutorials/tutorial&#45;01.ipynb -->
<g id="node4" class="node">
<title>/Users/kamilazdybal/Desktop/my&#45;library/code/tutorials/tutorial&#45;01.ipynb</title>
<polygon fill="#b9e2f5" stroke="#1e1e1e" stroke-width="3" points="464,-252 345,-252 345,-216 470,-216 470,-246 464,-252"/>
<polyline fill="none" stroke="#1e1e1e" stroke-width="3" points="464,-252 464,-246 "/>
<polyline fill="none" stroke="#1e1e1e" stroke-width="3" points="470,-246 464,-246 "/>
<text text-anchor="middle" x="407.5" y="-230.3" font-family="Graphik" font-size="14.00">tutorial&#45;01.ipynb</text>
</g>
<!-- tutorials&#45;&#45;/Users/kamilazdybal/Desktop/my&#45;library/code/tutorials/tutorial&#45;01.ipynb -->
<g id="edge1" class="edge">
<title>tutorials&#45;&#45;/Users/kamilazdybal/Desktop/my&#45;library/code/tutorials/tutorial&#45;01.ipynb</title>
<path fill="none" stroke="#1e1e1e" stroke-width="3" d="M259,-198.28C259,-213.95 259,-234 259,-234 259,-234 304.37,-234 344.95,-234"/>
</g>
<!-- /Users/kamilazdybal/Desktop/my&#45;library/code/tutorials/tutorial&#45;02.ipynb -->
<g id="node5" class="node">
<title>/Users/kamilazdybal/Desktop/my&#45;library/code/tutorials/tutorial&#45;02.ipynb</title>
<polygon fill="#b9e2f5" stroke="#1e1e1e" stroke-width="3" points="465,-198 344,-198 344,-162 471,-162 471,-192 465,-198"/>
<polyline fill="none" stroke="#1e1e1e" stroke-width="3" points="465,-198 465,-192 "/>
<polyline fill="none" stroke="#1e1e1e" stroke-width="3" points="471,-192 465,-192 "/>
<text text-anchor="middle" x="407.5" y="-176.3" font-family="Graphik" font-size="14.00">tutorial&#45;02.ipynb</text>
</g>
<!-- tutorials&#45;&#45;/Users/kamilazdybal/Desktop/my&#45;library/code/tutorials/tutorial&#45;02.ipynb -->
<g id="edge2" class="edge">
<title>tutorials&#45;&#45;/Users/kamilazdybal/Desktop/my&#45;library/code/tutorials/tutorial&#45;02.ipynb</title>
<path fill="none" stroke="#1e1e1e" stroke-width="3" d="M294.19,-180C309.08,-180 326.85,-180 343.85,-180"/>
</g>
<!-- /Users/kamilazdybal/Desktop/my&#45;library/code/src/optimize.py -->
<g id="node7" class="node">
<title>/Users/kamilazdybal/Desktop/my&#45;library/code/src/optimize.py</title>
<polygon fill="#b9e2f5" stroke="#1e1e1e" stroke-width="3" points="449,-144 360,-144 360,-108 455,-108 455,-138 449,-144"/>
<polyline fill="none" stroke="#1e1e1e" stroke-width="3" points="449,-144 449,-138 "/>
<polyline fill="none" stroke="#1e1e1e" stroke-width="3" points="455,-138 449,-138 "/>
<text text-anchor="middle" x="407.5" y="-122.3" font-family="Graphik" font-size="14.00">optimize.py</text>
</g>
<!-- src&#45;&#45;/Users/kamilazdybal/Desktop/my&#45;library/code/src/optimize.py -->
<g id="edge4" class="edge">
<title>src&#45;&#45;/Users/kamilazdybal/Desktop/my&#45;library/code/src/optimize.py</title>
<path fill="none" stroke="#1e1e1e" stroke-width="3" d="M285.83,-112.5C306.5,-112.5 335.39,-112.5 359.84,-112.5"/>
</g>
<!-- /Users/kamilazdybal/Desktop/my&#45;library/code/src/__init__.py -->
<g id="node8" class="node">
<title>/Users/kamilazdybal/Desktop/my&#45;library/code/src/__init__.py</title>
<polygon fill="#b9e2f5" stroke="#1e1e1e" stroke-width="3" points="441,-90 368,-90 368,-54 447,-54 447,-84 441,-90"/>
<polyline fill="none" stroke="#1e1e1e" stroke-width="3" points="441,-90 441,-84 "/>
<polyline fill="none" stroke="#1e1e1e" stroke-width="3" points="447,-84 441,-84 "/>
<text text-anchor="middle" x="407.5" y="-68.3" font-family="Graphik" font-size="14.00">__init__.py</text>
</g>
<!-- src&#45;&#45;/Users/kamilazdybal/Desktop/my&#45;library/code/src/__init__.py -->
<g id="edge5" class="edge">
<title>src&#45;&#45;/Users/kamilazdybal/Desktop/my&#45;library/code/src/__init__.py</title>
<path fill="none" stroke="#1e1e1e" stroke-width="3" d="M285.83,-87C308.85,-87 342.08,-87 367.99,-87"/>
</g>
<!-- /Users/kamilazdybal/Desktop/my&#45;library/code/src/network.py -->
<g id="node9" class="node">
<title>/Users/kamilazdybal/Desktop/my&#45;library/code/src/network.py</title>
<polygon fill="#b9e2f5" stroke="#1e1e1e" stroke-width="3" points="447,-36 362,-36 362,0 453,0 453,-30 447,-36"/>
<polyline fill="none" stroke="#1e1e1e" stroke-width="3" points="447,-36 447,-30 "/>
<polyline fill="none" stroke="#1e1e1e" stroke-width="3" points="453,-30 447,-30 "/>
<text text-anchor="middle" x="407.5" y="-14.3" font-family="Graphik" font-size="14.00">network.py</text>
</g>
<!-- src&#45;&#45;/Users/kamilazdybal/Desktop/my&#45;library/code/src/network.py -->
<g id="edge6" class="edge">
<title>src&#45;&#45;/Users/kamilazdybal/Desktop/my&#45;library/code/src/network.py</title>
<path fill="none" stroke="#1e1e1e" stroke-width="3" d="M285.57,-84C304.34,-84 326,-84 326,-84 326,-84 326,-31.5 326,-31.5 326,-31.5 343.32,-31.5 361.98,-31.5"/>
</g>
<!-- /Users/kamilazdybal/Desktop/my&#45;library/docs/README.md -->
<g id="node11" class="node">
<title>/Users/kamilazdybal/Desktop/my&#45;library/docs/README.md</title>
<polygon fill="#b9e2f5" stroke="#1e1e1e" stroke-width="3" points="302,-63 209,-63 209,-27 308,-27 308,-57 302,-63"/>
<polyline fill="none" stroke="#1e1e1e" stroke-width="3" points="302,-63 302,-57 "/>
<polyline fill="none" stroke="#1e1e1e" stroke-width="3" points="308,-57 302,-57 "/>
<text text-anchor="middle" x="258.5" y="-41.3" font-family="Graphik" font-size="14.00">README.md</text>
</g>
<!-- docs&#45;&#45;/Users/kamilazdybal/Desktop/my&#45;library/docs/README.md -->
<g id="edge9" class="edge">
<title>docs&#45;&#45;/Users/kamilazdybal/Desktop/my&#45;library/docs/README.md</title>
<path fill="none" stroke="#1e1e1e" stroke-width="3" d="M173.23,-45C183.9,-45 196.48,-45 208.65,-45"/>
</g>
</g>
</svg>
