<?xml version="1.0" encoding="UTF-8" standalone="no"?>
<!DOCTYPE svg PUBLIC "-//W3C//DTD SVG 1.1//EN"
 "http://www.w3.org/Graphics/SVG/1.1/DTD/svg11.dtd">
<!-- Generated by graphviz version 2.44.1 (20200629.0846)
 -->
<!-- Pages: 1 -->
<svg width="466pt" height="260pt"
 viewBox="0.00 0.00 466.00 260.00" xmlns="http://www.w3.org/2000/svg" xmlns:xlink="http://www.w3.org/1999/xlink">
<g id="graph0" class="graph" transform="scale(1 1) rotate(0) translate(4 256)">
<!-- my&#45;library -->
<g id="node1" class="node">
<title>my&#45;library</title>
<polygon fill="white" stroke="#1e1e1e" stroke-width="5" points="79,-90 76,-94 55,-94 52,-90 0,-90 0,-54 79,-54 79,-90"/>
<text text-anchor="middle" x="39.5" y="-68.3" font-family="Avenir" font-size="14.00">my&#45;library</text>
</g>
<!-- code -->
<g id="node2" class="node">
<title>code</title>
<polygon fill="white" stroke="#1e1e1e" stroke-width="5" points="169,-117 166,-121 145,-121 142,-117 115,-117 115,-81 169,-81 169,-117"/>
<text text-anchor="middle" x="142" y="-95.3" font-family="Avenir" font-size="14.00">code</text>
</g>
<!-- my&#45;library&#45;&#45;code -->
<g id="edge8" class="edge">
<title>my&#45;library&#45;&#45;code</title>
<path fill="none" stroke="#1e1e1e" stroke-width="3" d="M79.13,-85.5C91.07,-85.5 103.9,-85.5 114.84,-85.5"/>
</g>
<!-- docs -->
<g id="node10" class="node">
<title>docs</title>
<polygon fill="white" stroke="#1e1e1e" stroke-width="5" points="169,-63 166,-67 145,-67 142,-63 115,-63 115,-27 169,-27 169,-63"/>
<text text-anchor="middle" x="142" y="-41.3" font-family="Avenir" font-size="14.00">docs</text>
</g>
<!-- my&#45;library&#45;&#45;docs -->
<g id="edge10" class="edge">
<title>my&#45;library&#45;&#45;docs</title>
<path fill="none" stroke="#1e1e1e" stroke-width="3" d="M79.13,-58.5C91.07,-58.5 103.9,-58.5 114.84,-58.5"/>
</g>
<!-- tutorials -->
<g id="node3" class="node">
<title>tutorials</title>
<polygon fill="white" stroke="#1e1e1e" stroke-width="5" points="288,-198 285,-202 264,-202 261,-198 220,-198 220,-162 288,-162 288,-198"/>
<text text-anchor="middle" x="254" y="-176.3" font-family="Avenir" font-size="14.00">tutorials</text>
</g>
<!-- code&#45;&#45;tutorials -->
<g id="edge3" class="edge">
<title>code&#45;&#45;tutorials</title>
<path fill="none" stroke="#1e1e1e" stroke-width="3" d="M169.3,-105C193.16,-105 224,-105 224,-105 224,-105 224,-139.65 224,-161.84"/>
</g>
<!-- src -->
<g id="node6" class="node">
<title>src</title>
<polygon fill="white" stroke="#1e1e1e" stroke-width="5" points="281,-117 278,-121 257,-121 254,-117 227,-117 227,-81 281,-81 281,-117"/>
<text text-anchor="middle" x="254" y="-95.3" font-family="Avenir" font-size="14.00">src</text>
</g>
<!-- code&#45;&#45;src -->
<g id="edge7" class="edge">
<title>code&#45;&#45;src</title>
<path fill="none" stroke="#1e1e1e" stroke-width="3" d="M169.11,-93C186.59,-93 209.24,-93 226.75,-93"/>
</g>
<!-- /Users/kamilazdybal/Desktop/my&#45;library/code/tutorials/tutorial&#45;01.ipynb -->
<g id="node4" class="node">
<title>/Users/kamilazdybal/Desktop/my&#45;library/code/tutorials/tutorial&#45;01.ipynb</title>
<polygon fill="#b9e2f5" stroke="#1e1e1e" stroke-width="3" points="452,-252 339,-252 339,-216 458,-216 458,-246 452,-252"/>
<polyline fill="none" stroke="#1e1e1e" stroke-width="3" points="452,-252 452,-246 "/>
<polyline fill="none" stroke="#1e1e1e" stroke-width="3" points="458,-246 452,-246 "/>
<text text-anchor="middle" x="398.5" y="-230.3" font-family="Avenir" font-size="14.00">tutorial&#45;01.ipynb</text>
</g>
<!-- tutorials&#45;&#45;/Users/kamilazdybal/Desktop/my&#45;library/code/tutorials/tutorial&#45;01.ipynb -->
<g id="edge1" class="edge">
<title>tutorials&#45;&#45;/Users/kamilazdybal/Desktop/my&#45;library/code/tutorials/tutorial&#45;01.ipynb</title>
<path fill="none" stroke="#1e1e1e" stroke-width="3" d="M254,-198.28C254,-213.95 254,-234 254,-234 254,-234 299.09,-234 338.89,-234"/>
</g>
<!-- /Users/kamilazdybal/Desktop/my&#45;library/code/tutorials/tutorial&#45;02.ipynb -->
<g id="node5" class="node">
<title>/Users/kamilazdybal/Desktop/my&#45;library/code/tutorials/tutorial&#45;02.ipynb</title>
<polygon fill="#b9e2f5" stroke="#1e1e1e" stroke-width="3" points="452,-198 339,-198 339,-162 458,-162 458,-192 452,-198"/>
<polyline fill="none" stroke="#1e1e1e" stroke-width="3" points="452,-198 452,-192 "/>
<polyline fill="none" stroke="#1e1e1e" stroke-width="3" points="458,-192 452,-192 "/>
<text text-anchor="middle" x="398.5" y="-176.3" font-family="Avenir" font-size="14.00">tutorial&#45;02.ipynb</text>
</g>
<!-- tutorials&#45;&#45;/Users/kamilazdybal/Desktop/my&#45;library/code/tutorials/tutorial&#45;02.ipynb -->
<g id="edge2" class="edge">
<title>tutorials&#45;&#45;/Users/kamilazdybal/Desktop/my&#45;library/code/tutorials/tutorial&#45;02.ipynb</title>
<path fill="none" stroke="#1e1e1e" stroke-width="3" d="M288.24,-180C303.35,-180 321.55,-180 338.78,-180"/>
</g>
<!-- /Users/kamilazdybal/Desktop/my&#45;library/code/src/optimize.py -->
<g id="node7" class="node">
<title>/Users/kamilazdybal/Desktop/my&#45;library/code/src/optimize.py</title>
<polygon fill="#b9e2f5" stroke="#1e1e1e" stroke-width="3" points="437,-144 354,-144 354,-108 443,-108 443,-138 437,-144"/>
<polyline fill="none" stroke="#1e1e1e" stroke-width="3" points="437,-144 437,-138 "/>
<polyline fill="none" stroke="#1e1e1e" stroke-width="3" points="443,-138 437,-138 "/>
<text text-anchor="middle" x="398.5" y="-122.3" font-family="Avenir" font-size="14.00">optimize.py</text>
</g>
<!-- src&#45;&#45;/Users/kamilazdybal/Desktop/my&#45;library/code/src/optimize.py -->
<g id="edge4" class="edge">
<title>src&#45;&#45;/Users/kamilazdybal/Desktop/my&#45;library/code/src/optimize.py</title>
<path fill="none" stroke="#1e1e1e" stroke-width="3" d="M281.18,-112.5C301.62,-112.5 330.07,-112.5 353.83,-112.5"/>
</g>
<!-- /Users/kamilazdybal/Desktop/my&#45;library/code/src/__init__.py -->
<g id="node8" class="node">
<title>/Users/kamilazdybal/Desktop/my&#45;library/code/src/__init__.py</title>
<polygon fill="#b9e2f5" stroke="#1e1e1e" stroke-width="3" points="433,-90 358,-90 358,-54 439,-54 439,-84 433,-90"/>
<polyline fill="none" stroke="#1e1e1e" stroke-width="3" points="433,-90 433,-84 "/>
<polyline fill="none" stroke="#1e1e1e" stroke-width="3" points="439,-84 433,-84 "/>
<text text-anchor="middle" x="398.5" y="-68.3" font-family="Avenir" font-size="14.00">__init__.py</text>
</g>
<!-- src&#45;&#45;/Users/kamilazdybal/Desktop/my&#45;library/code/src/__init__.py -->
<g id="edge5" class="edge">
<title>src&#45;&#45;/Users/kamilazdybal/Desktop/my&#45;library/code/src/__init__.py</title>
<path fill="none" stroke="#1e1e1e" stroke-width="3" d="M281.18,-87C302.76,-87 333.28,-87 357.78,-87"/>
</g>
<!-- /Users/kamilazdybal/Desktop/my&#45;library/code/src/network.py -->
<g id="node9" class="node">
<title>/Users/kamilazdybal/Desktop/my&#45;library/code/src/network.py</title>
<polygon fill="#b9e2f5" stroke="#1e1e1e" stroke-width="3" points="435.5,-36 355.5,-36 355.5,0 441.5,0 441.5,-30 435.5,-36"/>
<polyline fill="none" stroke="#1e1e1e" stroke-width="3" points="435.5,-36 435.5,-30 "/>
<polyline fill="none" stroke="#1e1e1e" stroke-width="3" points="441.5,-30 435.5,-30 "/>
<text text-anchor="middle" x="398.5" y="-14.3" font-family="Avenir" font-size="14.00">network.py</text>
</g>
<!-- src&#45;&#45;/Users/kamilazdybal/Desktop/my&#45;library/code/src/network.py -->
<g id="edge6" class="edge">
<title>src&#45;&#45;/Users/kamilazdybal/Desktop/my&#45;library/code/src/network.py</title>
<path fill="none" stroke="#1e1e1e" stroke-width="3" d="M281.25,-84C299.8,-84 321,-84 321,-84 321,-84 321,-31.5 321,-31.5 321,-31.5 337.47,-31.5 355.22,-31.5"/>
</g>
<!-- /Users/kamilazdybal/Desktop/my&#45;library/docs/README.md -->
<g id="node11" class="node">
<title>/Users/kamilazdybal/Desktop/my&#45;library/docs/README.md</title>
<polygon fill="#b9e2f5" stroke="#1e1e1e" stroke-width="3" points="297,-63 205,-63 205,-27 303,-27 303,-57 297,-63"/>
<polyline fill="none" stroke="#1e1e1e" stroke-width="3" points="297,-63 297,-57 "/>
<polyline fill="none" stroke="#1e1e1e" stroke-width="3" points="303,-57 297,-57 "/>
<text text-anchor="middle" x="254" y="-41.3" font-family="Avenir" font-size="14.00">README.md</text>
</g>
<!-- docs&#45;&#45;/Users/kamilazdybal/Desktop/my&#45;library/docs/README.md -->
<g id="edge9" class="edge">
<title>docs&#45;&#45;/Users/kamilazdybal/Desktop/my&#45;library/docs/README.md</title>
<path fill="none" stroke="#1e1e1e" stroke-width="3" d="M169.11,-45C179.86,-45 192.56,-45 204.82,-45"/>
</g>
</g>
</svg>
